<svg xmlns="http://www.w3.org/2000/svg" aria-hidden="true" style="position:absolute;width:0;height:0;overflow:hidden">
  <defs>
    <symbol id="icon-close" viewBox="0 0 32 32">
      <path stroke-linecap="round" stroke-linejoin="round" stroke-width="2" d="M23.637 24.971 6.666 8M24.076 8 7.105 24.971"/>
    </symbol>
    <symbol id="icon-arrow-right" viewBox="0 0 32 32">
      <path fill="#a3e635" d="M16 26.88C9.984 26.88 5.12 22.016 5.12 16S9.984 5.12 16 5.12c6.016 0 10.88 4.864 10.88 10.88S22.016 26.88 16 26.88zM16 6.4c-5.312 0-9.6 4.288-9.6 9.6s4.288 9.6 9.6 9.6c5.312 0 9.6-4.288 9.6-9.6S21.312 6.4 16 6.4z" style="fill:var(--color1, #a3e635)"/>
      <path fill="#a3e635" d="m15.808 22.208-.896-.896L20.224 16l-5.312-5.312.896-.896L22.016 16l-6.208 6.208z" style="fill:var(--color1, #a3e635)"/>
      <path fill="#a3e635" d="M10.24 15.36h10.88v1.28H10.24v-1.28z" style="fill:var(--color1, #a3e635)"/>
    </symbol>
    <symbol id="icon-menu" viewBox="0 0 32 32">
      <path stroke-linecap="round" stroke-width="2" d="M4 9.333h24M4 16h24M4 22.667h24"/>
    </symbol>
  </defs>
</svg>
